ply
format ascii 1.0
comment Synthetic ARC 3133 teaching data; not a survey
element vertex 1806
property float x
property float y
property float z
end_header
-2.0 -0.8 0.0
-2.0 -0.8 0.24
-2.0 -0.8 0.48
-2.0 -0.8 0.72
-2.0 -0.8 0.96
-2.0 -0.8 1.2
-2.0 -0.8 1.44
-2.0 -0.8 1.68
-2.0 -0.8 1.92
-2.0 -0.8 2.16
-2.0 -0.8 2.4
-2.0 -0.64 0.0
-2.0 -0.64 0.24
-2.0 -0.64 0.48
-2.0 -0.64 0.72
-2.0 -0.64 0.96
-2.0 -0.64 1.2
-2.0 -0.64 1.44
-2.0 -0.64 1.68
-2.0 -0.64 1.92
-2.0 -0.64 2.16
-2.0 -0.64 2.4
-2.0 -0.48 0.0
-2.0 -0.48 0.24
-2.0 -0.48 0.48
-2.0 -0.48 0.72
-2.0 -0.48 0.96
-2.0 -0.48 1.2
-2.0 -0.48 1.44
-2.0 -0.48 1.68
-2.0 -0.48 1.92
-2.0 -0.48 2.16
-2.0 -0.48 2.4
-2.0 -0.32 0.0
-2.0 -0.32 0.24
-2.0 -0.32 0.48
-2.0 -0.32 0.72
-2.0 -0.32 0.96
-2.0 -0.32 1.2
-2.0 -0.32 1.44
-2.0 -0.32 1.68
-2.0 -0.32 1.92
-2.0 -0.32 2.16
-2.0 -0.32 2.4
-2.0 -0.16 0.0
-2.0 -0.16 0.24
-2.0 -0.16 0.48
-2.0 -0.16 0.72
-2.0 -0.16 0.96
-2.0 -0.16 1.2
-2.0 -0.16 1.44
-2.0 -0.16 1.68
-2.0 -0.16 1.92
-2.0 -0.16 2.16
-2.0 -0.16 2.4
-2.0 0.0 0.0
-2.0 0.0 0.24
-2.0 0.0 0.48
-2.0 0.0 0.72
-2.0 0.0 0.96
-2.0 0.0 1.2
-2.0 0.0 1.44
-2.0 0.0 1.68
-2.0 0.0 1.92
-2.0 0.0 2.16
-2.0 0.0 2.4
-2.0 0.16 0.0
-2.0 0.16 0.24
-2.0 0.16 0.48
-2.0 0.16 0.72
-2.0 0.16 0.96
-2.0 0.16 1.2
-2.0 0.16 1.44
-2.0 0.16 1.68
-2.0 0.16 1.92
-2.0 0.16 2.16
-2.0 0.16 2.4
-2.0 0.32 0.0
-2.0 0.32 0.24
-2.0 0.32 0.48
-2.0 0.32 0.72
-2.0 0.32 0.96
-2.0 0.32 1.2
-2.0 0.32 1.44
-2.0 0.32 1.68
-2.0 0.32 1.92
-2.0 0.32 2.16
-2.0 0.32 2.4
-2.0 0.48 0.0
-2.0 0.48 0.24
-2.0 0.48 0.48
-2.0 0.48 0.72
-2.0 0.48 0.96
-2.0 0.48 1.2
-2.0 0.48 1.44
-2.0 0.48 1.68
-2.0 0.48 1.92
-2.0 0.48 2.16
-2.0 0.48 2.4
-2.0 0.64 0.0
-2.0 0.64 0.24
-2.0 0.64 0.48
-2.0 0.64 0.72
-2.0 0.64 0.96
-2.0 0.64 1.2
-2.0 0.64 1.44
-2.0 0.64 1.68
-2.0 0.64 1.92
-2.0 0.64 2.16
-2.0 0.64 2.4
-2.0 0.8 0.0
-2.0 0.8 0.24
-2.0 0.8 0.48
-2.0 0.8 0.72
-2.0 0.8 0.96
-2.0 0.8 1.2
-2.0 0.8 1.44
-2.0 0.8 1.68
-2.0 0.8 1.92
-2.0 0.8 2.16
-2.0 0.8 2.4
-1.88 -0.8 0.0
-1.88 -0.8 0.24
-1.88 -0.8 0.48
-1.88 -0.8 0.72
-1.88 -0.8 0.96
-1.88 -0.8 1.2
-1.88 -0.8 1.44
-1.88 -0.8 1.68
-1.88 -0.8 1.92
-1.88 -0.8 2.16
-1.88 -0.8 2.4
-1.88 -0.64 0.0
-1.88 -0.64 2.4
-1.88 -0.48 0.0
-1.88 -0.48 2.4
-1.88 -0.32 0.0
-1.88 -0.32 2.4
-1.88 -0.16 0.0
-1.88 -0.16 2.4
-1.88 0.0 0.0
-1.88 0.0 2.4
-1.88 0.16 0.0
-1.88 0.16 2.4
-1.88 0.32 0.0
-1.88 0.32 2.4
-1.88 0.48 0.0
-1.88 0.48 2.4
-1.88 0.64 0.0
-1.88 0.64 2.4
-1.88 0.8 0.0
-1.88 0.8 0.24
-1.88 0.8 0.48
-1.88 0.8 0.72
-1.88 0.8 0.96
-1.88 0.8 1.2
-1.88 0.8 1.44
-1.88 0.8 1.68
-1.88 0.8 1.92
-1.88 0.8 2.16
-1.88 0.8 2.4
-1.76 -0.8 0.0
-1.76 -0.8 0.24
-1.76 -0.8 0.48
-1.76 -0.8 0.72
-1.76 -0.8 0.96
-1.76 -0.8 1.2
-1.76 -0.8 1.44
-1.76 -0.8 1.68
-1.76 -0.8 1.92
-1.76 -0.8 2.16
-1.76 -0.8 2.4
-1.76 -0.64 0.0
-1.76 -0.64 2.4
-1.76 -0.48 0.0
-1.76 -0.48 2.4
-1.76 -0.32 0.0
-1.76 -0.32 2.4
-1.76 -0.16 0.0
-1.76 -0.16 2.4
-1.76 0.0 0.0
-1.76 0.0 2.4
-1.76 0.16 0.0
-1.76 0.16 2.4
-1.76 0.32 0.0
-1.76 0.32 2.4
-1.76 0.48 0.0
-1.76 0.48 2.4
-1.76 0.64 0.0
-1.76 0.64 2.4
-1.76 0.8 0.0
-1.76 0.8 0.24
-1.76 0.8 0.48
-1.76 0.8 0.72
-1.76 0.8 0.96
-1.76 0.8 1.2
-1.76 0.8 1.44
-1.76 0.8 1.68
-1.76 0.8 1.92
-1.76 0.8 2.16
-1.76 0.8 2.4
-1.64 -0.8 0.0
-1.64 -0.8 0.24
-1.64 -0.8 0.48
-1.64 -0.8 0.72
-1.64 -0.8 0.96
-1.64 -0.8 1.2
-1.64 -0.8 1.44
-1.64 -0.8 1.68
-1.64 -0.8 1.92
-1.64 -0.8 2.16
-1.64 -0.8 2.4
-1.64 -0.64 0.0
-1.64 -0.64 2.4
-1.64 -0.48 0.0
-1.64 -0.48 2.4
-1.64 -0.32 0.0
-1.64 -0.32 2.4
-1.64 -0.16 0.0
-1.64 -0.16 2.4
-1.64 0.0 0.0
-1.64 0.0 2.4
-1.64 0.16 0.0
-1.64 0.16 2.4
-1.64 0.32 0.0
-1.64 0.32 2.4
-1.64 0.48 0.0
-1.64 0.48 2.4
-1.64 0.64 0.0
-1.64 0.64 2.4
-1.64 0.8 0.0
-1.64 0.8 0.24
-1.64 0.8 0.48
-1.64 0.8 0.72
-1.64 0.8 0.96
-1.64 0.8 1.2
-1.64 0.8 1.44
-1.64 0.8 1.68
-1.64 0.8 1.92
-1.64 0.8 2.16
-1.64 0.8 2.4
-1.52 -0.8 0.0
-1.52 -0.8 0.24
-1.52 -0.8 0.48
-1.52 -0.8 0.72
-1.52 -0.8 0.96
-1.52 -0.8 1.2
-1.52 -0.8 1.44
-1.52 -0.8 1.68
-1.52 -0.8 1.92
-1.52 -0.8 2.16
-1.52 -0.8 2.4
-1.52 -0.64 0.0
-1.52 -0.64 2.4
-1.52 -0.48 0.0
-1.52 -0.48 2.4
-1.52 -0.32 0.0
-1.52 -0.32 2.4
-1.52 -0.16 0.0
-1.52 -0.16 2.4
-1.52 0.0 0.0
-1.52 0.0 2.4
-1.52 0.16 0.0
-1.52 0.16 2.4
-1.52 0.32 0.0
-1.52 0.32 2.4
-1.52 0.48 0.0
-1.52 0.48 2.4
-1.52 0.64 0.0
-1.52 0.64 2.4
-1.52 0.8 0.0
-1.52 0.8 0.24
-1.52 0.8 0.48
-1.52 0.8 0.72
-1.52 0.8 0.96
-1.52 0.8 1.2
-1.52 0.8 1.44
-1.52 0.8 1.68
-1.52 0.8 1.92
-1.52 0.8 2.16
-1.52 0.8 2.4
-1.4 -0.8 0.0
-1.4 -0.8 0.24
-1.4 -0.8 0.48
-1.4 -0.8 0.72
-1.4 -0.8 0.96
-1.4 -0.8 1.2
-1.4 -0.8 1.44
-1.4 -0.8 1.68
-1.4 -0.8 1.92
-1.4 -0.8 2.16
-1.4 -0.8 2.4
-1.4 -0.64 0.0
-1.4 -0.64 2.4
-1.4 -0.48 0.0
-1.4 -0.48 2.4
-1.4 -0.32 0.0
-1.4 -0.32 2.4
-1.4 -0.16 0.0
-1.4 -0.16 2.4
-1.4 0.0 0.0
-1.4 0.0 2.4
-1.4 0.16 0.0
-1.4 0.16 2.4
-1.4 0.32 0.0
-1.4 0.32 2.4
-1.4 0.48 0.0
-1.4 0.48 2.4
-1.4 0.64 0.0
-1.4 0.64 2.4
-1.4 0.8 0.0
-1.4 0.8 0.24
-1.4 0.8 0.48
-1.4 0.8 0.72
-1.4 0.8 0.96
-1.4 0.8 1.2
-1.4 0.8 1.44
-1.4 0.8 1.68
-1.4 0.8 1.92
-1.4 0.8 2.16
-1.4 0.8 2.4
-1.28 -0.8 0.0
-1.28 -0.8 0.24
-1.28 -0.8 0.48
-1.28 -0.8 0.72
-1.28 -0.8 0.96
-1.28 -0.8 1.2
-1.28 -0.8 1.44
-1.28 -0.8 1.68
-1.28 -0.8 1.92
-1.28 -0.8 2.16
-1.28 -0.8 2.4
-1.28 -0.64 0.0
-1.28 -0.64 2.4
-1.28 -0.48 0.0
-1.28 -0.48 2.4
-1.28 -0.32 0.0
-1.28 -0.32 2.4
-1.28 -0.16 0.0
-1.28 -0.16 2.4
-1.28 0.0 0.0
-1.28 0.0 2.4
-1.28 0.16 0.0
-1.28 0.16 2.4
-1.28 0.32 0.0
-1.28 0.32 2.4
-1.28 0.48 0.0
-1.28 0.48 2.4
-1.28 0.64 0.0
-1.28 0.64 2.4
-1.28 0.8 0.0
-1.28 0.8 0.24
-1.28 0.8 0.48
-1.28 0.8 0.72
-1.28 0.8 0.96
-1.28 0.8 1.2
-1.28 0.8 1.44
-1.28 0.8 1.68
-1.28 0.8 1.92
-1.28 0.8 2.16
-1.28 0.8 2.4
-1.16 -0.8 0.0
-1.16 -0.8 0.24
-1.16 -0.8 0.48
-1.16 -0.8 0.72
-1.16 -0.8 0.96
-1.16 -0.8 1.2
-1.16 -0.8 1.44
-1.16 -0.8 1.68
-1.16 -0.8 1.92
-1.16 -0.8 2.16
-1.16 -0.8 2.4
-1.16 -0.64 0.0
-1.16 -0.64 2.4
-1.16 -0.48 0.0
-1.16 -0.48 2.4
-1.16 -0.32 0.0
-1.16 -0.32 2.4
-1.16 -0.16 0.0
-1.16 -0.16 2.4
-1.16 0.0 0.0
-1.16 0.0 2.4
-1.16 0.16 0.0
-1.16 0.16 2.4
-1.16 0.32 0.0
-1.16 0.32 2.4
-1.16 0.48 0.0
-1.16 0.48 2.4
-1.16 0.64 0.0
-1.16 0.64 2.4
-1.16 0.8 0.0
-1.16 0.8 0.24
-1.16 0.8 0.48
-1.16 0.8 0.72
-1.16 0.8 0.96
-1.16 0.8 1.2
-1.16 0.8 1.44
-1.16 0.8 1.68
-1.16 0.8 1.92
-1.16 0.8 2.16
-1.16 0.8 2.4
-1.04 -0.8 0.0
-1.04 -0.8 0.24
-1.04 -0.8 0.48
-1.04 -0.8 0.72
-1.04 -0.8 0.96
-1.04 -0.8 1.2
-1.04 -0.8 1.44
-1.04 -0.8 1.68
-1.04 -0.8 1.92
-1.04 -0.8 2.16
-1.04 -0.8 2.4
-1.04 -0.64 0.0
-1.04 -0.64 2.4
-1.04 -0.48 0.0
-1.04 -0.48 2.4
-1.04 -0.32 0.0
-1.04 -0.32 2.4
-1.04 -0.16 0.0
-1.04 -0.16 2.4
-1.04 0.0 0.0
-1.04 0.0 2.4
-1.04 0.16 0.0
-1.04 0.16 2.4
-1.04 0.32 0.0
-1.04 0.32 2.4
-1.04 0.48 0.0
-1.04 0.48 2.4
-1.04 0.64 0.0
-1.04 0.64 2.4
-1.04 0.8 0.0
-1.04 0.8 0.24
-1.04 0.8 0.48
-1.04 0.8 0.72
-1.04 0.8 0.96
-1.04 0.8 1.2
-1.04 0.8 1.44
-1.04 0.8 1.68
-1.04 0.8 1.92
-1.04 0.8 2.16
-1.04 0.8 2.4
-0.92 -0.8 0.0
-0.92 -0.8 0.24
-0.92 -0.8 0.48
-0.92 -0.8 0.72
-0.92 -0.8 0.96
-0.92 -0.8 1.2
-0.92 -0.8 1.44
-0.92 -0.8 1.68
-0.92 -0.8 1.92
-0.92 -0.8 2.16
-0.92 -0.8 2.4
-0.92 -0.64 0.0
-0.92 -0.64 2.4
-0.92 -0.48 0.0
-0.92 -0.48 2.4
-0.92 -0.32 0.0
-0.92 -0.32 2.4
-0.92 -0.16 0.0
-0.92 -0.16 2.4
-0.92 0.0 0.0
-0.92 0.0 2.4
-0.92 0.16 0.0
-0.92 0.16 2.4
-0.92 0.32 0.0
-0.92 0.32 2.4
-0.92 0.48 0.0
-0.92 0.48 2.4
-0.92 0.64 0.0
-0.92 0.64 2.4
-0.92 0.8 0.0
-0.92 0.8 0.24
-0.92 0.8 0.48
-0.92 0.8 0.72
-0.92 0.8 0.96
-0.92 0.8 1.2
-0.92 0.8 1.44
-0.92 0.8 1.68
-0.92 0.8 1.92
-0.92 0.8 2.16
-0.92 0.8 2.4
-0.8 -0.8 0.0
-0.8 -0.8 0.24
-0.8 -0.8 0.48
-0.8 -0.8 0.72
-0.8 -0.8 0.96
-0.8 -0.8 1.2
-0.8 -0.8 1.44
-0.8 -0.8 1.68
-0.8 -0.8 1.92
-0.8 -0.8 2.16
-0.8 -0.8 2.4
-0.8 -0.64 0.0
-0.8 -0.64 0.24
-0.8 -0.64 0.48
-0.8 -0.64 0.72
-0.8 -0.64 0.96
-0.8 -0.64 1.2
-0.8 -0.64 1.44
-0.8 -0.64 1.68
-0.8 -0.64 1.92
-0.8 -0.64 2.16
-0.8 -0.64 2.4
-0.8 -0.48 0.0
-0.8 -0.48 0.24
-0.8 -0.48 0.48
-0.8 -0.48 0.72
-0.8 -0.48 0.96
-0.8 -0.48 1.2
-0.8 -0.48 1.44
-0.8 -0.48 1.68
-0.8 -0.48 1.92
-0.8 -0.48 2.16
-0.8 -0.48 2.4
-0.8 -0.32 0.0
-0.8 -0.32 0.24
-0.8 -0.32 0.48
-0.8 -0.32 0.72
-0.8 -0.32 0.96
-0.8 -0.32 1.2
-0.8 -0.32 1.44
-0.8 -0.32 1.68
-0.8 -0.32 1.92
-0.8 -0.32 2.16
-0.8 -0.32 2.4
-0.8 -0.16 0.0
-0.8 -0.16 0.24
-0.8 -0.16 0.48
-0.8 -0.16 0.72
-0.8 -0.16 0.96
-0.8 -0.16 1.2
-0.8 -0.16 1.44
-0.8 -0.16 1.68
-0.8 -0.16 1.92
-0.8 -0.16 2.16
-0.8 -0.16 2.4
-0.8 0.0 0.0
-0.8 0.0 0.24
-0.8 0.0 0.48
-0.8 0.0 0.72
-0.8 0.0 0.96
-0.8 0.0 1.2
-0.8 0.0 1.44
-0.8 0.0 1.68
-0.8 0.0 1.92
-0.8 0.0 2.16
-0.8 0.0 2.4
-0.8 0.16 0.0
-0.8 0.16 0.24
-0.8 0.16 0.48
-0.8 0.16 0.72
-0.8 0.16 0.96
-0.8 0.16 1.2
-0.8 0.16 1.44
-0.8 0.16 1.68
-0.8 0.16 1.92
-0.8 0.16 2.16
-0.8 0.16 2.4
-0.8 0.32 0.0
-0.8 0.32 0.24
-0.8 0.32 0.48
-0.8 0.32 0.72
-0.8 0.32 0.96
-0.8 0.32 1.2
-0.8 0.32 1.44
-0.8 0.32 1.68
-0.8 0.32 1.92
-0.8 0.32 2.16
-0.8 0.32 2.4
-0.8 0.48 0.0
-0.8 0.48 0.24
-0.8 0.48 0.48
-0.8 0.48 0.72
-0.8 0.48 0.96
-0.8 0.48 1.2
-0.8 0.48 1.44
-0.8 0.48 1.68
-0.8 0.48 1.92
-0.8 0.48 2.16
-0.8 0.48 2.4
-0.8 0.64 0.0
-0.8 0.64 0.24
-0.8 0.64 0.48
-0.8 0.64 0.72
-0.8 0.64 0.96
-0.8 0.64 1.2
-0.8 0.64 1.44
-0.8 0.64 1.68
-0.8 0.64 1.92
-0.8 0.64 2.16
-0.8 0.64 2.4
-0.8 0.8 0.0
-0.8 0.8 0.24
-0.8 0.8 0.48
-0.8 0.8 0.72
-0.8 0.8 0.96
-0.8 0.8 1.2
-0.8 0.8 1.44
-0.8 0.8 1.68
-0.8 0.8 1.92
-0.8 0.8 2.16
-0.8 0.8 2.4
-0.5 1.1 0.0
-0.5 1.1 0.18
-0.5 1.1 0.36
-0.5 1.1 0.54
-0.5 1.1 0.72
-0.5 1.1 0.9
-0.5 1.1 1.08
-0.5 1.1 1.26
-0.5 1.1 1.44
-0.5 1.1 1.62
-0.5 1.1 1.8
-0.5 1.19 0.0
-0.5 1.19 0.18
-0.5 1.19 0.36
-0.5 1.19 0.54
-0.5 1.19 0.72
-0.5 1.19 0.9
-0.5 1.19 1.08
-0.5 1.19 1.26
-0.5 1.19 1.44
-0.5 1.19 1.62
-0.5 1.19 1.8
-0.5 1.28 0.0
-0.5 1.28 0.18
-0.5 1.28 0.36
-0.5 1.28 0.54
-0.5 1.28 0.72
-0.5 1.28 0.9
-0.5 1.28 1.08
-0.5 1.28 1.26
-0.5 1.28 1.44
-0.5 1.28 1.62
-0.5 1.28 1.8
-0.5 1.37 0.0
-0.5 1.37 0.18
-0.5 1.37 0.36
-0.5 1.37 0.54
-0.5 1.37 0.72
-0.5 1.37 0.9
-0.5 1.37 1.08
-0.5 1.37 1.26
-0.5 1.37 1.44
-0.5 1.37 1.62
-0.5 1.37 1.8
-0.5 1.46 0.0
-0.5 1.46 0.18
-0.5 1.46 0.36
-0.5 1.46 0.54
-0.5 1.46 0.72
-0.5 1.46 0.9
-0.5 1.46 1.08
-0.5 1.46 1.26
-0.5 1.46 1.44
-0.5 1.46 1.62
-0.5 1.46 1.8
-0.5 1.55 0.0
-0.5 1.55 0.18
-0.5 1.55 0.36
-0.5 1.55 0.54
-0.5 1.55 0.72
-0.5 1.55 0.9
-0.5 1.55 1.08
-0.5 1.55 1.26
-0.5 1.55 1.44
-0.5 1.55 1.62
-0.5 1.55 1.8
-0.5 1.64 0.0
-0.5 1.64 0.18
-0.5 1.64 0.36
-0.5 1.64 0.54
-0.5 1.64 0.72
-0.5 1.64 0.9
-0.5 1.64 1.08
-0.5 1.64 1.26
-0.5 1.64 1.44
-0.5 1.64 1.62
-0.5 1.64 1.8
-0.5 1.73 0.0
-0.5 1.73 0.18
-0.5 1.73 0.36
-0.5 1.73 0.54
-0.5 1.73 0.72
-0.5 1.73 0.9
-0.5 1.73 1.08
-0.5 1.73 1.26
-0.5 1.73 1.44
-0.5 1.73 1.62
-0.5 1.73 1.8
-0.5 1.82 0.0
-0.5 1.82 0.18
-0.5 1.82 0.36
-0.5 1.82 0.54
-0.5 1.82 0.72
-0.5 1.82 0.9
-0.5 1.82 1.08
-0.5 1.82 1.26
-0.5 1.82 1.44
-0.5 1.82 1.62
-0.5 1.82 1.8
-0.5 1.91 0.0
-0.5 1.91 0.18
-0.5 1.91 0.36
-0.5 1.91 0.54
-0.5 1.91 0.72
-0.5 1.91 0.9
-0.5 1.91 1.08
-0.5 1.91 1.26
-0.5 1.91 1.44
-0.5 1.91 1.62
-0.5 1.91 1.8
-0.5 2.0 0.0
-0.5 2.0 0.18
-0.5 2.0 0.36
-0.5 2.0 0.54
-0.5 2.0 0.72
-0.5 2.0 0.9
-0.5 2.0 1.08
-0.5 2.0 1.26
-0.5 2.0 1.44
-0.5 2.0 1.62
-0.5 2.0 1.8
-0.27 1.1 0.0
-0.27 1.1 0.18
-0.27 1.1 0.36
-0.27 1.1 0.54
-0.27 1.1 0.72
-0.27 1.1 0.9
-0.27 1.1 1.08
-0.27 1.1 1.26
-0.27 1.1 1.44
-0.27 1.1 1.62
-0.27 1.1 1.8
-0.27 1.19 0.0
-0.27 1.19 1.8
-0.27 1.28 0.0
-0.27 1.28 1.8
-0.27 1.37 0.0
-0.27 1.37 1.8
-0.27 1.46 0.0
-0.27 1.46 1.8
-0.27 1.55 0.0
-0.27 1.55 1.8
-0.27 1.64 0.0
-0.27 1.64 1.8
-0.27 1.73 0.0
-0.27 1.73 1.8
-0.27 1.82 0.0
-0.27 1.82 1.8
-0.27 1.91 0.0
-0.27 1.91 1.8
-0.27 2.0 0.0
-0.27 2.0 0.18
-0.27 2.0 0.36
-0.27 2.0 0.54
-0.27 2.0 0.72
-0.27 2.0 0.9
-0.27 2.0 1.08
-0.27 2.0 1.26
-0.27 2.0 1.44
-0.27 2.0 1.62
-0.27 2.0 1.8
-0.04 1.1 0.0
-0.04 1.1 0.18
-0.04 1.1 0.36
-0.04 1.1 0.54
-0.04 1.1 0.72
-0.04 1.1 0.9
-0.04 1.1 1.08
-0.04 1.1 1.26
-0.04 1.1 1.44
-0.04 1.1 1.62
-0.04 1.1 1.8
-0.04 1.19 0.0
-0.04 1.19 1.8
-0.04 1.28 0.0
-0.04 1.28 1.8
-0.04 1.37 0.0
-0.04 1.37 1.8
-0.04 1.46 0.0
-0.04 1.46 1.8
-0.04 1.55 0.0
-0.04 1.55 1.8
-0.04 1.64 0.0
-0.04 1.64 1.8
-0.04 1.73 0.0
-0.04 1.73 1.8
-0.04 1.82 0.0
-0.04 1.82 1.8
-0.04 1.91 0.0
-0.04 1.91 1.8
-0.04 2.0 0.0
-0.04 2.0 0.18
-0.04 2.0 0.36
-0.04 2.0 0.54
-0.04 2.0 0.72
-0.04 2.0 0.9
-0.04 2.0 1.08
-0.04 2.0 1.26
-0.04 2.0 1.44
-0.04 2.0 1.62
-0.04 2.0 1.8
0.19 1.1 0.0
0.19 1.1 0.18
0.19 1.1 0.36
0.19 1.1 0.54
0.19 1.1 0.72
0.19 1.1 0.9
0.19 1.1 1.08
0.19 1.1 1.26
0.19 1.1 1.44
0.19 1.1 1.62
0.19 1.1 1.8
0.19 1.19 0.0
0.19 1.19 1.8
0.19 1.28 0.0
0.19 1.28 1.8
0.19 1.37 0.0
0.19 1.37 1.8
0.19 1.46 0.0
0.19 1.46 1.8
0.19 1.55 0.0
0.19 1.55 1.8
0.19 1.64 0.0
0.19 1.64 1.8
0.19 1.73 0.0
0.19 1.73 1.8
0.19 1.82 0.0
0.19 1.82 1.8
0.19 1.91 0.0
0.19 1.91 1.8
0.19 2.0 0.0
0.19 2.0 0.18
0.19 2.0 0.36
0.19 2.0 0.54
0.19 2.0 0.72
0.19 2.0 0.9
0.19 2.0 1.08
0.19 2.0 1.26
0.19 2.0 1.44
0.19 2.0 1.62
0.19 2.0 1.8
0.42 1.1 0.0
0.42 1.1 0.18
0.42 1.1 0.36
0.42 1.1 0.54
0.42 1.1 0.72
0.42 1.1 0.9
0.42 1.1 1.08
0.42 1.1 1.26
0.42 1.1 1.44
0.42 1.1 1.62
0.42 1.1 1.8
0.42 1.19 0.0
0.42 1.19 1.8
0.42 1.28 0.0
0.42 1.28 1.8
0.42 1.37 0.0
0.42 1.37 1.8
0.42 1.46 0.0
0.42 1.46 1.8
0.42 1.55 0.0
0.42 1.55 1.8
0.42 1.64 0.0
0.42 1.64 1.8
0.42 1.73 0.0
0.42 1.73 1.8
0.42 1.82 0.0
0.42 1.82 1.8
0.42 1.91 0.0
0.42 1.91 1.8
0.42 2.0 0.0
0.42 2.0 0.18
0.42 2.0 0.36
0.42 2.0 0.54
0.42 2.0 0.72
0.42 2.0 0.9
0.42 2.0 1.08
0.42 2.0 1.26
0.42 2.0 1.44
0.42 2.0 1.62
0.42 2.0 1.8
0.5 -1.5 0.0
0.5 -1.5 0.13
0.5 -1.5 0.26
0.5 -1.5 0.39
0.5 -1.5 0.52
0.5 -1.5 0.65
0.5 -1.5 0.78
0.5 -1.5 0.91
0.5 -1.5 1.04
0.5 -1.5 1.17
0.5 -1.5 1.3
0.5 -1.38 0.0
0.5 -1.38 0.13
0.5 -1.38 0.26
0.5 -1.38 0.39
0.5 -1.38 0.52
0.5 -1.38 0.65
0.5 -1.38 0.78
0.5 -1.38 0.91
0.5 -1.38 1.04
0.5 -1.38 1.17
0.5 -1.38 1.3
0.5 -1.26 0.0
0.5 -1.26 0.13
0.5 -1.26 0.26
0.5 -1.26 0.39
0.5 -1.26 0.52
0.5 -1.26 0.65
0.5 -1.26 0.78
0.5 -1.26 0.91
0.5 -1.26 1.04
0.5 -1.26 1.17
0.5 -1.26 1.3
0.5 -1.14 0.0
0.5 -1.14 0.13
0.5 -1.14 0.26
0.5 -1.14 0.39
0.5 -1.14 0.52
0.5 -1.14 0.65
0.5 -1.14 0.78
0.5 -1.14 0.91
0.5 -1.14 1.04
0.5 -1.14 1.17
0.5 -1.14 1.3
0.5 -1.02 0.0
0.5 -1.02 0.13
0.5 -1.02 0.26
0.5 -1.02 0.39
0.5 -1.02 0.52
0.5 -1.02 0.65
0.5 -1.02 0.78
0.5 -1.02 0.91
0.5 -1.02 1.04
0.5 -1.02 1.17
0.5 -1.02 1.3
0.5 -0.9 0.0
0.5 -0.9 0.13
0.5 -0.9 0.26
0.5 -0.9 0.39
0.5 -0.9 0.52
0.5 -0.9 0.65
0.5 -0.9 0.78
0.5 -0.9 0.91
0.5 -0.9 1.04
0.5 -0.9 1.17
0.5 -0.9 1.3
0.5 -0.78 0.0
0.5 -0.78 0.13
0.5 -0.78 0.26
0.5 -0.78 0.39
0.5 -0.78 0.52
0.5 -0.78 0.65
0.5 -0.78 0.78
0.5 -0.78 0.91
0.5 -0.78 1.04
0.5 -0.78 1.17
0.5 -0.78 1.3
0.5 -0.66 0.0
0.5 -0.66 0.13
0.5 -0.66 0.26
0.5 -0.66 0.39
0.5 -0.66 0.52
0.5 -0.66 0.65
0.5 -0.66 0.78
0.5 -0.66 0.91
0.5 -0.66 1.04
0.5 -0.66 1.17
0.5 -0.66 1.3
0.5 -0.54 0.0
0.5 -0.54 0.13
0.5 -0.54 0.26
0.5 -0.54 0.39
0.5 -0.54 0.52
0.5 -0.54 0.65
0.5 -0.54 0.78
0.5 -0.54 0.91
0.5 -0.54 1.04
0.5 -0.54 1.17
0.5 -0.54 1.3
0.5 -0.42 0.0
0.5 -0.42 0.13
0.5 -0.42 0.26
0.5 -0.42 0.39
0.5 -0.42 0.52
0.5 -0.42 0.65
0.5 -0.42 0.78
0.5 -0.42 0.91
0.5 -0.42 1.04
0.5 -0.42 1.17
0.5 -0.42 1.3
0.5 -0.3 0.0
0.5 -0.3 0.13
0.5 -0.3 0.26
0.5 -0.3 0.39
0.5 -0.3 0.52
0.5 -0.3 0.65
0.5 -0.3 0.78
0.5 -0.3 0.91
0.5 -0.3 1.04
0.5 -0.3 1.17
0.5 -0.3 1.3
0.65 1.1 0.0
0.65 1.1 0.18
0.65 1.1 0.36
0.65 1.1 0.54
0.65 1.1 0.72
0.65 1.1 0.9
0.65 1.1 1.08
0.65 1.1 1.26
0.65 1.1 1.44
0.65 1.1 1.62
0.65 1.1 1.8
0.65 1.19 0.0
0.65 1.19 1.8
0.65 1.28 0.0
0.65 1.28 1.8
0.65 1.37 0.0
0.65 1.37 1.8
0.65 1.46 0.0
0.65 1.46 1.8
0.65 1.55 0.0
0.65 1.55 1.8
0.65 1.64 0.0
0.65 1.64 1.8
0.65 1.73 0.0
0.65 1.73 1.8
0.65 1.82 0.0
0.65 1.82 1.8
0.65 1.91 0.0
0.65 1.91 1.8
0.65 2.0 0.0
0.65 2.0 0.18
0.65 2.0 0.36
0.65 2.0 0.54
0.65 2.0 0.72
0.65 2.0 0.9
0.65 2.0 1.08
0.65 2.0 1.26
0.65 2.0 1.44
0.65 2.0 1.62
0.65 2.0 1.8
0.68 -1.5 0.0
0.68 -1.5 0.13
0.68 -1.5 0.26
0.68 -1.5 0.39
0.68 -1.5 0.52
0.68 -1.5 0.65
0.68 -1.5 0.78
0.68 -1.5 0.91
0.68 -1.5 1.04
0.68 -1.5 1.17
0.68 -1.5 1.3
0.68 -1.38 0.0
0.68 -1.38 1.3
0.68 -1.26 0.0
0.68 -1.26 1.3
0.68 -1.14 0.0
0.68 -1.14 1.3
0.68 -1.02 0.0
0.68 -1.02 1.3
0.68 -0.9 0.0
0.68 -0.9 1.3
0.68 -0.78 0.0
0.68 -0.78 1.3
0.68 -0.66 0.0
0.68 -0.66 1.3
0.68 -0.54 0.0
0.68 -0.54 1.3
0.68 -0.42 0.0
0.68 -0.42 1.3
0.68 -0.3 0.0
0.68 -0.3 0.13
0.68 -0.3 0.26
0.68 -0.3 0.39
0.68 -0.3 0.52
0.68 -0.3 0.65
0.68 -0.3 0.78
0.68 -0.3 0.91
0.68 -0.3 1.04
0.68 -0.3 1.17
0.68 -0.3 1.3
0.86 -1.5 0.0
0.86 -1.5 0.13
0.86 -1.5 0.26
0.86 -1.5 0.39
0.86 -1.5 0.52
0.86 -1.5 0.65
0.86 -1.5 0.78
0.86 -1.5 0.91
0.86 -1.5 1.04
0.86 -1.5 1.17
0.86 -1.5 1.3
0.86 -1.38 0.0
0.86 -1.38 1.3
0.86 -1.26 0.0
0.86 -1.26 1.3
0.86 -1.14 0.0
0.86 -1.14 1.3
0.86 -1.02 0.0
0.86 -1.02 1.3
0.86 -0.9 0.0
0.86 -0.9 1.3
0.86 -0.78 0.0
0.86 -0.78 1.3
0.86 -0.66 0.0
0.86 -0.66 1.3
0.86 -0.54 0.0
0.86 -0.54 1.3
0.86 -0.42 0.0
0.86 -0.42 1.3
0.86 -0.3 0.0
0.86 -0.3 0.13
0.86 -0.3 0.26
0.86 -0.3 0.39
0.86 -0.3 0.52
0.86 -0.3 0.65
0.86 -0.3 0.78
0.86 -0.3 0.91
0.86 -0.3 1.04
0.86 -0.3 1.17
0.86 -0.3 1.3
0.88 1.1 0.0
0.88 1.1 0.18
0.88 1.1 0.36
0.88 1.1 0.54
0.88 1.1 0.72
0.88 1.1 0.9
0.88 1.1 1.08
0.88 1.1 1.26
0.88 1.1 1.44
0.88 1.1 1.62
0.88 1.1 1.8
0.88 1.19 0.0
0.88 1.19 1.8
0.88 1.28 0.0
0.88 1.28 1.8
0.88 1.37 0.0
0.88 1.37 1.8
0.88 1.46 0.0
0.88 1.46 1.8
0.88 1.55 0.0
0.88 1.55 1.8
0.88 1.64 0.0
0.88 1.64 1.8
0.88 1.73 0.0
0.88 1.73 1.8
0.88 1.82 0.0
0.88 1.82 1.8
0.88 1.91 0.0
0.88 1.91 1.8
0.88 2.0 0.0
0.88 2.0 0.18
0.88 2.0 0.36
0.88 2.0 0.54
0.88 2.0 0.72
0.88 2.0 0.9
0.88 2.0 1.08
0.88 2.0 1.26
0.88 2.0 1.44
0.88 2.0 1.62
0.88 2.0 1.8
1.04 -1.5 0.0
1.04 -1.5 0.13
1.04 -1.5 0.26
1.04 -1.5 0.39
1.04 -1.5 0.52
1.04 -1.5 0.65
1.04 -1.5 0.78
1.04 -1.5 0.91
1.04 -1.5 1.04
1.04 -1.5 1.17
1.04 -1.5 1.3
1.04 -1.38 0.0
1.04 -1.38 1.3
1.04 -1.26 0.0
1.04 -1.26 1.3
1.04 -1.14 0.0
1.04 -1.14 1.3
1.04 -1.02 0.0
1.04 -1.02 1.3
1.04 -0.9 0.0
1.04 -0.9 1.3
1.04 -0.78 0.0
1.04 -0.78 1.3
1.04 -0.66 0.0
1.04 -0.66 1.3
1.04 -0.54 0.0
1.04 -0.54 1.3
1.04 -0.42 0.0
1.04 -0.42 1.3
1.04 -0.3 0.0
1.04 -0.3 0.13
1.04 -0.3 0.26
1.04 -0.3 0.39
1.04 -0.3 0.52
1.04 -0.3 0.65
1.04 -0.3 0.78
1.04 -0.3 0.91
1.04 -0.3 1.04
1.04 -0.3 1.17
1.04 -0.3 1.3
1.11 1.1 0.0
1.11 1.1 0.18
1.11 1.1 0.36
1.11 1.1 0.54
1.11 1.1 0.72
1.11 1.1 0.9
1.11 1.1 1.08
1.11 1.1 1.26
1.11 1.1 1.44
1.11 1.1 1.62
1.11 1.1 1.8
1.11 1.19 0.0
1.11 1.19 1.8
1.11 1.28 0.0
1.11 1.28 1.8
1.11 1.37 0.0
1.11 1.37 1.8
1.11 1.46 0.0
1.11 1.46 1.8
1.11 1.55 0.0
1.11 1.55 1.8
1.11 1.64 0.0
1.11 1.64 1.8
1.11 1.73 0.0
1.11 1.73 1.8
1.11 1.82 0.0
1.11 1.82 1.8
1.11 1.91 0.0
1.11 1.91 1.8
1.11 2.0 0.0
1.11 2.0 0.18
1.11 2.0 0.36
1.11 2.0 0.54
1.11 2.0 0.72
1.11 2.0 0.9
1.11 2.0 1.08
1.11 2.0 1.26
1.11 2.0 1.44
1.11 2.0 1.62
1.11 2.0 1.8
1.22 -1.5 0.0
1.22 -1.5 0.13
1.22 -1.5 0.26
1.22 -1.5 0.39
1.22 -1.5 0.52
1.22 -1.5 0.65
1.22 -1.5 0.78
1.22 -1.5 0.91
1.22 -1.5 1.04
1.22 -1.5 1.17
1.22 -1.5 1.3
1.22 -1.38 0.0
1.22 -1.38 1.3
1.22 -1.26 0.0
1.22 -1.26 1.3
1.22 -1.14 0.0
1.22 -1.14 1.3
1.22 -1.02 0.0
1.22 -1.02 1.3
1.22 -0.9 0.0
1.22 -0.9 1.3
1.22 -0.78 0.0
1.22 -0.78 1.3
1.22 -0.66 0.0
1.22 -0.66 1.3
1.22 -0.54 0.0
1.22 -0.54 1.3
1.22 -0.42 0.0
1.22 -0.42 1.3
1.22 -0.3 0.0
1.22 -0.3 0.13
1.22 -0.3 0.26
1.22 -0.3 0.39
1.22 -0.3 0.52
1.22 -0.3 0.65
1.22 -0.3 0.78
1.22 -0.3 0.91
1.22 -0.3 1.04
1.22 -0.3 1.17
1.22 -0.3 1.3
1.34 1.1 0.0
1.34 1.1 0.18
1.34 1.1 0.36
1.34 1.1 0.54
1.34 1.1 0.72
1.34 1.1 0.9
1.34 1.1 1.08
1.34 1.1 1.26
1.34 1.1 1.44
1.34 1.1 1.62
1.34 1.1 1.8
1.34 1.19 0.0
1.34 1.19 1.8
1.34 1.28 0.0
1.34 1.28 1.8
1.34 1.37 0.0
1.34 1.37 1.8
1.34 1.46 0.0
1.34 1.46 1.8
1.34 1.55 0.0
1.34 1.55 1.8
1.34 1.64 0.0
1.34 1.64 1.8
1.34 1.73 0.0
1.34 1.73 1.8
1.34 1.82 0.0
1.34 1.82 1.8
1.34 1.91 0.0
1.34 1.91 1.8
1.34 2.0 0.0
1.34 2.0 0.18
1.34 2.0 0.36
1.34 2.0 0.54
1.34 2.0 0.72
1.34 2.0 0.9
1.34 2.0 1.08
1.34 2.0 1.26
1.34 2.0 1.44
1.34 2.0 1.62
1.34 2.0 1.8
1.4 -1.5 0.0
1.4 -1.5 0.13
1.4 -1.5 0.26
1.4 -1.5 0.39
1.4 -1.5 0.52
1.4 -1.5 0.65
1.4 -1.5 0.78
1.4 -1.5 0.91
1.4 -1.5 1.04
1.4 -1.5 1.17
1.4 -1.5 1.3
1.4 -1.38 0.0
1.4 -1.38 1.3
1.4 -1.26 0.0
1.4 -1.26 1.3
1.4 -1.14 0.0
1.4 -1.14 1.3
1.4 -1.02 0.0
1.4 -1.02 1.3
1.4 -0.9 0.0
1.4 -0.9 1.3
1.4 -0.78 0.0
1.4 -0.78 1.3
1.4 -0.66 0.0
1.4 -0.66 1.3
1.4 -0.54 0.0
1.4 -0.54 1.3
1.4 -0.42 0.0
1.4 -0.42 1.3
1.4 -0.3 0.0
1.4 -0.3 0.13
1.4 -0.3 0.26
1.4 -0.3 0.39
1.4 -0.3 0.52
1.4 -0.3 0.65
1.4 -0.3 0.78
1.4 -0.3 0.91
1.4 -0.3 1.04
1.4 -0.3 1.17
1.4 -0.3 1.3
1.57 1.1 0.0
1.57 1.1 0.18
1.57 1.1 0.36
1.57 1.1 0.54
1.57 1.1 0.72
1.57 1.1 0.9
1.57 1.1 1.08
1.57 1.1 1.26
1.57 1.1 1.44
1.57 1.1 1.62
1.57 1.1 1.8
1.57 1.19 0.0
1.57 1.19 1.8
1.57 1.28 0.0
1.57 1.28 1.8
1.57 1.37 0.0
1.57 1.37 1.8
1.57 1.46 0.0
1.57 1.46 1.8
1.57 1.55 0.0
1.57 1.55 1.8
1.57 1.64 0.0
1.57 1.64 1.8
1.57 1.73 0.0
1.57 1.73 1.8
1.57 1.82 0.0
1.57 1.82 1.8
1.57 1.91 0.0
1.57 1.91 1.8
1.57 2.0 0.0
1.57 2.0 0.18
1.57 2.0 0.36
1.57 2.0 0.54
1.57 2.0 0.72
1.57 2.0 0.9
1.57 2.0 1.08
1.57 2.0 1.26
1.57 2.0 1.44
1.57 2.0 1.62
1.57 2.0 1.8
1.58 -1.5 0.0
1.58 -1.5 0.13
1.58 -1.5 0.26
1.58 -1.5 0.39
1.58 -1.5 0.52
1.58 -1.5 0.65
1.58 -1.5 0.78
1.58 -1.5 0.91
1.58 -1.5 1.04
1.58 -1.5 1.17
1.58 -1.5 1.3
1.58 -1.38 0.0
1.58 -1.38 1.3
1.58 -1.26 0.0
1.58 -1.26 1.3
1.58 -1.14 0.0
1.58 -1.14 1.3
1.58 -1.02 0.0
1.58 -1.02 1.3
1.58 -0.9 0.0
1.58 -0.9 1.3
1.58 -0.78 0.0
1.58 -0.78 1.3
1.58 -0.66 0.0
1.58 -0.66 1.3
1.58 -0.54 0.0
1.58 -0.54 1.3
1.58 -0.42 0.0
1.58 -0.42 1.3
1.58 -0.3 0.0
1.58 -0.3 0.13
1.58 -0.3 0.26
1.58 -0.3 0.39
1.58 -0.3 0.52
1.58 -0.3 0.65
1.58 -0.3 0.78
1.58 -0.3 0.91
1.58 -0.3 1.04
1.58 -0.3 1.17
1.58 -0.3 1.3
1.76 -1.5 0.0
1.76 -1.5 0.13
1.76 -1.5 0.26
1.76 -1.5 0.39
1.76 -1.5 0.52
1.76 -1.5 0.65
1.76 -1.5 0.78
1.76 -1.5 0.91
1.76 -1.5 1.04
1.76 -1.5 1.17
1.76 -1.5 1.3
1.76 -1.38 0.0
1.76 -1.38 1.3
1.76 -1.26 0.0
1.76 -1.26 1.3
1.76 -1.14 0.0
1.76 -1.14 1.3
1.76 -1.02 0.0
1.76 -1.02 1.3
1.76 -0.9 0.0
1.76 -0.9 1.3
1.76 -0.78 0.0
1.76 -0.78 1.3
1.76 -0.66 0.0
1.76 -0.66 1.3
1.76 -0.54 0.0
1.76 -0.54 1.3
1.76 -0.42 0.0
1.76 -0.42 1.3
1.76 -0.3 0.0
1.76 -0.3 0.13
1.76 -0.3 0.26
1.76 -0.3 0.39
1.76 -0.3 0.52
1.76 -0.3 0.65
1.76 -0.3 0.78
1.76 -0.3 0.91
1.76 -0.3 1.04
1.76 -0.3 1.17
1.76 -0.3 1.3
1.8 1.1 0.0
1.8 1.1 0.18
1.8 1.1 0.36
1.8 1.1 0.54
1.8 1.1 0.72
1.8 1.1 0.9
1.8 1.1 1.08
1.8 1.1 1.26
1.8 1.1 1.44
1.8 1.1 1.62
1.8 1.1 1.8
1.8 1.19 0.0
1.8 1.19 0.18
1.8 1.19 0.36
1.8 1.19 0.54
1.8 1.19 0.72
1.8 1.19 0.9
1.8 1.19 1.08
1.8 1.19 1.26
1.8 1.19 1.44
1.8 1.19 1.62
1.8 1.19 1.8
1.8 1.28 0.0
1.8 1.28 0.18
1.8 1.28 0.36
1.8 1.28 0.54
1.8 1.28 0.72
1.8 1.28 0.9
1.8 1.28 1.08
1.8 1.28 1.26
1.8 1.28 1.44
1.8 1.28 1.62
1.8 1.28 1.8
1.8 1.37 0.0
1.8 1.37 0.18
1.8 1.37 0.36
1.8 1.37 0.54
1.8 1.37 0.72
1.8 1.37 0.9
1.8 1.37 1.08
1.8 1.37 1.26
1.8 1.37 1.44
1.8 1.37 1.62
1.8 1.37 1.8
1.8 1.46 0.0
1.8 1.46 0.18
1.8 1.46 0.36
1.8 1.46 0.54
1.8 1.46 0.72
1.8 1.46 0.9
1.8 1.46 1.08
1.8 1.46 1.26
1.8 1.46 1.44
1.8 1.46 1.62
1.8 1.46 1.8
1.8 1.55 0.0
1.8 1.55 0.18
1.8 1.55 0.36
1.8 1.55 0.54
1.8 1.55 0.72
1.8 1.55 0.9
1.8 1.55 1.08
1.8 1.55 1.26
1.8 1.55 1.44
1.8 1.55 1.62
1.8 1.55 1.8
1.8 1.64 0.0
1.8 1.64 0.18
1.8 1.64 0.36
1.8 1.64 0.54
1.8 1.64 0.72
1.8 1.64 0.9
1.8 1.64 1.08
1.8 1.64 1.26
1.8 1.64 1.44
1.8 1.64 1.62
1.8 1.64 1.8
1.8 1.73 0.0
1.8 1.73 0.18
1.8 1.73 0.36
1.8 1.73 0.54
1.8 1.73 0.72
1.8 1.73 0.9
1.8 1.73 1.08
1.8 1.73 1.26
1.8 1.73 1.44
1.8 1.73 1.62
1.8 1.73 1.8
1.8 1.82 0.0
1.8 1.82 0.18
1.8 1.82 0.36
1.8 1.82 0.54
1.8 1.82 0.72
1.8 1.82 0.9
1.8 1.82 1.08
1.8 1.82 1.26
1.8 1.82 1.44
1.8 1.82 1.62
1.8 1.82 1.8
1.8 1.91 0.0
1.8 1.91 0.18
1.8 1.91 0.36
1.8 1.91 0.54
1.8 1.91 0.72
1.8 1.91 0.9
1.8 1.91 1.08
1.8 1.91 1.26
1.8 1.91 1.44
1.8 1.91 1.62
1.8 1.91 1.8
1.8 2.0 0.0
1.8 2.0 0.18
1.8 2.0 0.36
1.8 2.0 0.54
1.8 2.0 0.72
1.8 2.0 0.9
1.8 2.0 1.08
1.8 2.0 1.26
1.8 2.0 1.44
1.8 2.0 1.62
1.8 2.0 1.8
1.94 -1.5 0.0
1.94 -1.5 0.13
1.94 -1.5 0.26
1.94 -1.5 0.39
1.94 -1.5 0.52
1.94 -1.5 0.65
1.94 -1.5 0.78
1.94 -1.5 0.91
1.94 -1.5 1.04
1.94 -1.5 1.17
1.94 -1.5 1.3
1.94 -1.38 0.0
1.94 -1.38 1.3
1.94 -1.26 0.0
1.94 -1.26 1.3
1.94 -1.14 0.0
1.94 -1.14 1.3
1.94 -1.02 0.0
1.94 -1.02 1.3
1.94 -0.9 0.0
1.94 -0.9 1.3
1.94 -0.78 0.0
1.94 -0.78 1.3
1.94 -0.66 0.0
1.94 -0.66 1.3
1.94 -0.54 0.0
1.94 -0.54 1.3
1.94 -0.42 0.0
1.94 -0.42 1.3
1.94 -0.3 0.0
1.94 -0.3 0.13
1.94 -0.3 0.26
1.94 -0.3 0.39
1.94 -0.3 0.52
1.94 -0.3 0.65
1.94 -0.3 0.78
1.94 -0.3 0.91
1.94 -0.3 1.04
1.94 -0.3 1.17
1.94 -0.3 1.3
2.12 -1.5 0.0
2.12 -1.5 0.13
2.12 -1.5 0.26
2.12 -1.5 0.39
2.12 -1.5 0.52
2.12 -1.5 0.65
2.12 -1.5 0.78
2.12 -1.5 0.91
2.12 -1.5 1.04
2.12 -1.5 1.17
2.12 -1.5 1.3
2.12 -1.38 0.0
2.12 -1.38 1.3
2.12 -1.26 0.0
2.12 -1.26 1.3
2.12 -1.14 0.0
2.12 -1.14 1.3
2.12 -1.02 0.0
2.12 -1.02 1.3
2.12 -0.9 0.0
2.12 -0.9 1.3
2.12 -0.78 0.0
2.12 -0.78 1.3
2.12 -0.66 0.0
2.12 -0.66 1.3
2.12 -0.54 0.0
2.12 -0.54 1.3
2.12 -0.42 0.0
2.12 -0.42 1.3
2.12 -0.3 0.0
2.12 -0.3 0.13
2.12 -0.3 0.26
2.12 -0.3 0.39
2.12 -0.3 0.52
2.12 -0.3 0.65
2.12 -0.3 0.78
2.12 -0.3 0.91
2.12 -0.3 1.04
2.12 -0.3 1.17
2.12 -0.3 1.3
2.3 -1.5 0.0
2.3 -1.5 0.13
2.3 -1.5 0.26
2.3 -1.5 0.39
2.3 -1.5 0.52
2.3 -1.5 0.65
2.3 -1.5 0.78
2.3 -1.5 0.91
2.3 -1.5 1.04
2.3 -1.5 1.17
2.3 -1.5 1.3
2.3 -1.38 0.0
2.3 -1.38 0.13
2.3 -1.38 0.26
2.3 -1.38 0.39
2.3 -1.38 0.52
2.3 -1.38 0.65
2.3 -1.38 0.78
2.3 -1.38 0.91
2.3 -1.38 1.04
2.3 -1.38 1.17
2.3 -1.38 1.3
2.3 -1.26 0.0
2.3 -1.26 0.13
2.3 -1.26 0.26
2.3 -1.26 0.39
2.3 -1.26 0.52
2.3 -1.26 0.65
2.3 -1.26 0.78
2.3 -1.26 0.91
2.3 -1.26 1.04
2.3 -1.26 1.17
2.3 -1.26 1.3
2.3 -1.14 0.0
2.3 -1.14 0.13
2.3 -1.14 0.26
2.3 -1.14 0.39
2.3 -1.14 0.52
2.3 -1.14 0.65
2.3 -1.14 0.78
2.3 -1.14 0.91
2.3 -1.14 1.04
2.3 -1.14 1.17
2.3 -1.14 1.3
2.3 -1.02 0.0
2.3 -1.02 0.13
2.3 -1.02 0.26
2.3 -1.02 0.39
2.3 -1.02 0.52
2.3 -1.02 0.65
2.3 -1.02 0.78
2.3 -1.02 0.91
2.3 -1.02 1.04
2.3 -1.02 1.17
2.3 -1.02 1.3
2.3 -0.9 0.0
2.3 -0.9 0.13
2.3 -0.9 0.26
2.3 -0.9 0.39
2.3 -0.9 0.52
2.3 -0.9 0.65
2.3 -0.9 0.78
2.3 -0.9 0.91
2.3 -0.9 1.04
2.3 -0.9 1.17
2.3 -0.9 1.3
2.3 -0.78 0.0
2.3 -0.78 0.13
2.3 -0.78 0.26
2.3 -0.78 0.39
2.3 -0.78 0.52
2.3 -0.78 0.65
2.3 -0.78 0.78
2.3 -0.78 0.91
2.3 -0.78 1.04
2.3 -0.78 1.17
2.3 -0.78 1.3
2.3 -0.66 0.0
2.3 -0.66 0.13
2.3 -0.66 0.26
2.3 -0.66 0.39
2.3 -0.66 0.52
2.3 -0.66 0.65
2.3 -0.66 0.78
2.3 -0.66 0.91
2.3 -0.66 1.04
2.3 -0.66 1.17
2.3 -0.66 1.3
2.3 -0.54 0.0
2.3 -0.54 0.13
2.3 -0.54 0.26
2.3 -0.54 0.39
2.3 -0.54 0.52
2.3 -0.54 0.65
2.3 -0.54 0.78
2.3 -0.54 0.91
2.3 -0.54 1.04
2.3 -0.54 1.17
2.3 -0.54 1.3
2.3 -0.42 0.0
2.3 -0.42 0.13
2.3 -0.42 0.26
2.3 -0.42 0.39
2.3 -0.42 0.52
2.3 -0.42 0.65
2.3 -0.42 0.78
2.3 -0.42 0.91
2.3 -0.42 1.04
2.3 -0.42 1.17
2.3 -0.42 1.3
2.3 -0.3 0.0
2.3 -0.3 0.13
2.3 -0.3 0.26
2.3 -0.3 0.39
2.3 -0.3 0.52
2.3 -0.3 0.65
2.3 -0.3 0.78
2.3 -0.3 0.91
2.3 -0.3 1.04
2.3 -0.3 1.17
2.3 -0.3 1.3
